<?xml version="1.0" standalone="no"?>
<!DOCTYPE svg PUBLIC "-//W3C//DTD SVG 20010904//EN"
 "http://www.w3.org/TR/2001/REC-SVG-20010904/DTD/svg10.dtd">
<svg version="1.0" xmlns="http://www.w3.org/2000/svg"
 width="1000.000000pt" height="1000.000000pt" viewBox="0 0 1000.000000 1000.000000"
 preserveAspectRatio="xMidYMid meet">
<metadata>
Created by potrace 1.14, written by Peter Selinger 2001-2017
</metadata>
<g transform="translate(0.000000,1000.000000) scale(0.100000,-0.100000)"
fill="#000000" stroke="none">
<path d="M4768 9895 c-2 -2 -39 -6 -83 -10 -44 -3 -93 -8 -110 -10 -16 -2 -52
-7 -80 -10 -27 -3 -61 -8 -75 -10 -14 -2 -45 -6 -70 -9 -25 -3 -56 -8 -70 -11
-14 -3 -54 -10 -90 -16 -289 -50 -758 -191 -1027 -310 -24 -11 -64 -28 -90
-40 -63 -27 -365 -178 -378 -188 -5 -5 -37 -23 -70 -41 -68 -37 -255 -155
-330 -208 -79 -56 -239 -175 -245 -182 -3 -3 -25 -21 -50 -40 -25 -19 -85 -70
-135 -114 -792 -691 -1364 -1657 -1570 -2656 -28 -131 -50 -254 -60 -330 -3
-25 -8 -56 -10 -70 -2 -14 -7 -56 -11 -95 -3 -38 -8 -77 -9 -86 -25 -134 -25
-680 0 -905 3 -24 7 -65 10 -91 13 -114 18 -146 41 -283 14 -80 27 -152 28
-160 12 -70 67 -303 86 -365 6 -16 24 -75 40 -130 34 -110 122 -357 150 -420
10 -22 32 -74 50 -115 137 -317 349 -673 583 -980 347 -454 862 -909 1387
-1224 113 -67 399 -211 545 -274 381 -163 791 -283 1180 -346 17 -3 44 -7 60
-10 29 -5 73 -11 153 -21 113 -14 211 -18 432 -19 224 0 516 9 615 19 22 2 72
7 110 10 65 6 165 19 225 31 14 2 41 7 60 10 19 3 42 7 50 9 8 2 31 7 50 10
101 16 429 104 597 160 713 239 1334 626 1883 1175 332 332 549 614 777 1010
142 245 241 457 356 760 85 221 186 606 231 880 3 19 8 44 10 55 2 11 7 45 10
75 4 30 8 66 10 80 3 14 7 50 10 80 3 30 9 87 13 125 16 151 6 874 -12 905 -2
3 -6 41 -10 85 -4 44 -8 82 -10 85 -2 3 -6 30 -10 60 -5 43 -58 317 -80 411
-12 56 -81 292 -111 384 -98 301 -286 714 -439 965 -42 69 -84 138 -93 153
-30 51 -224 320 -286 397 -259 323 -557 614 -863 844 -71 53 -133 100 -140
106 -10 8 -177 118 -283 185 -123 78 -409 226 -585 303 -339 147 -679 252
-1060 328 -21 4 -121 22 -165 29 -14 3 -50 7 -80 11 -30 3 -62 8 -70 9 -8 2
-51 6 -95 10 -44 4 -89 10 -100 12 -22 6 -691 13 -697 8z m712 -209 c117 -8
193 -15 245 -23 22 -3 49 -7 60 -8 179 -25 523 -110 785 -195 242 -78 584
-233 850 -385 526 -301 952 -667 1357 -1169 356 -442 681 -1093 837 -1681 31
-118 87 -383 101 -479 3 -21 7 -48 10 -60 2 -12 7 -41 10 -66 3 -25 7 -55 9
-67 3 -12 7 -48 11 -80 3 -32 8 -76 11 -98 10 -81 8 -245 -3 -256 -8 -8 -21
-4 -47 17 -31 25 -257 251 -474 475 l-64 66 17 49 c26 76 26 81 -8 113 -77 74
-112 95 -203 125 -60 20 -79 38 -89 86 -16 77 -187 402 -296 560 -159 233
-361 452 -505 548 -106 70 -301 192 -309 192 -3 0 -22 11 -43 23 -90 57 -224
119 -307 143 -89 25 -315 127 -315 142 0 4 10 12 23 17 19 9 22 17 22 70 0 39
4 60 12 60 22 0 84 64 102 107 22 49 20 83 -10 181 -28 95 -63 169 -118 252
-44 67 -46 73 -46 144 0 95 -7 101 -107 77 l-73 -17 -100 36 c-136 50 -187 63
-211 54 -34 -12 -139 -115 -192 -187 -84 -114 -124 -213 -124 -305 1 -56 13
-78 80 -145 62 -61 98 -110 106 -144 8 -36 39 -55 101 -61 59 -6 111 -27 143
-57 20 -19 22 -30 20 -98 -1 -56 3 -86 15 -108 24 -46 38 -110 51 -234 22
-210 29 -240 93 -389 85 -199 171 -349 253 -441 53 -59 74 -83 115 -135 22
-27 42 -52 45 -55 29 -28 270 -435 337 -570 18 -36 35 -81 38 -100 3 -19 8
-48 11 -65 3 -16 13 -58 24 -92 10 -33 21 -94 25 -135 10 -130 18 -152 63
-169 19 -8 42 -1 112 31 48 22 95 40 104 40 30 0 106 -194 121 -310 9 -70 10
-73 45 -230 17 -74 35 -151 39 -170 4 -19 9 -67 10 -106 3 -82 -16 -138 -49
-149 -21 -7 -36 4 -286 195 -18 14 -126 100 -241 191 -237 189 -372 288 -433
319 -82 42 -142 18 -481 -195 -97 -60 -293 -155 -320 -155 -31 0 -46 15 -50
50 -8 75 33 103 161 105 52 2 107 7 121 13 15 6 62 57 106 114 65 84 306 387
356 448 7 8 25 31 40 51 l27 36 -15 72 c-20 96 -19 150 4 213 43 115 46 223 9
291 -29 53 -89 84 -184 96 -68 8 -69 8 -96 -22 -16 -16 -28 -35 -28 -41 0 -7
-16 -35 -35 -62 -42 -59 -44 -93 -10 -153 39 -68 35 -86 -57 -213 -45 -62 -97
-140 -117 -173 -43 -74 -112 -149 -151 -165 -42 -17 -70 -7 -122 45 -57 57
-99 136 -142 267 -40 121 -86 221 -120 263 l-25 30 -54 -56 -55 -56 -33 29
c-19 16 -83 70 -144 120 -122 100 -132 112 -115 134 29 34 128 11 233 -55 35
-23 73 -41 84 -41 11 0 36 17 54 39 19 21 55 52 80 69 65 44 71 54 76 139 3
43 15 118 28 166 l23 88 -33 44 c-37 48 -65 98 -65 116 0 6 -14 39 -31 73 -41
81 -42 90 -14 147 29 57 32 84 8 93 -10 4 -54 7 -98 6 -44 -1 -90 -1 -103 -1
-12 1 -37 16 -55 35 -56 57 -180 109 -230 95 -23 -6 -132 -86 -183 -134 -47
-43 -96 -85 -133 -114 -38 -30 -50 -34 -96 -33 -66 1 -115 24 -116 55 -2 78
-23 158 -81 302 -74 188 -88 278 -52 346 22 43 94 113 136 134 64 31 77 50
119 172 54 157 55 163 30 212 -46 89 -34 140 44 194 81 56 75 79 -31 131 -74
36 -108 68 -169 160 -21 31 -57 78 -80 104 l-43 47 -93 -1 c-78 -1 -109 -7
-184 -33 -156 -56 -264 -132 -306 -214 -18 -35 -21 -52 -16 -117 3 -41 9 -85
12 -96 5 -15 -2 -31 -25 -57 -44 -51 -48 -91 -15 -156 14 -29 28 -68 31 -87 5
-40 25 -84 61 -132 l25 -34 -35 -36 c-93 -97 -122 -132 -172 -206 -105 -161
-175 -355 -231 -644 -8 -40 -37 -106 -60 -137 -106 -143 -355 -663 -379 -794
-7 -39 -18 -108 -21 -131 -22 -186 -18 -181 -97 -137 -34 19 -77 43 -96 54
-21 11 -44 38 -60 68 -25 46 -59 84 -162 182 -34 32 -48 55 -62 104 -10 34
-40 107 -67 160 l-49 98 15 83 c23 127 41 264 49 363 3 50 8 113 11 140 7 87
7 308 0 352 -5 27 -26 67 -57 110 -56 77 -60 108 -26 228 20 69 91 149 175
193 32 17 66 40 76 50 9 11 28 64 42 118 13 55 31 116 39 136 14 36 13 41 -12
102 l-26 64 20 80 20 80 -28 64 c-16 35 -29 73 -29 86 0 57 -40 94 -114 108
-44 8 -64 21 -122 80 -29 30 -61 55 -71 55 -172 13 -371 -55 -494 -168 -107
-100 -125 -174 -74 -312 25 -68 26 -78 14 -115 -17 -53 -16 -61 4 -126 16 -54
30 -219 18 -221 -3 -1 -88 -2 -189 -4 -304 -5 -299 -3 -489 -245 -50 -63 -124
-167 -165 -230 -41 -63 -105 -155 -142 -205 -248 -332 -276 -382 -676 -1159
-102 -200 -161 -303 -207 -364 -15 -20 -22 -39 -18 -51 8 -25 -53 -75 -106
-89 l-39 -10 5 37 c2 20 9 70 15 111 6 41 13 93 16 115 2 22 9 69 15 105 6 36
12 76 14 90 16 109 79 352 141 537 143 430 385 916 620 1240 64 90 215 285
234 303 3 3 36 41 74 85 95 110 352 364 461 458 581 496 1267 843 2015 1021
149 35 354 74 430 81 36 4 76 9 90 11 14 2 93 7 175 10 83 4 151 7 152 8 6 5
529 -2 613 -8z m-2788 -1948 c45 -47 158 -196 158 -210 0 -18 -34 -60 -61 -73
-25 -13 -30 -13 -44 1 -23 24 -49 85 -84 199 -45 144 -40 155 31 83z m2181
-147 c41 -44 64 -76 61 -85 -13 -33 -69 12 -125 98 -68 103 -40 97 64 -13z
m-2041 -242 c9 -10 24 -52 33 -92 9 -39 31 -99 50 -132 45 -81 59 -160 53
-300 -7 -143 -26 -190 -79 -190 -65 0 -106 101 -114 282 -3 60 -8 125 -10 144
-17 131 -23 274 -12 303 9 23 54 14 79 -15z m-8 -815 c13 -35 6 -95 -16 -124
-12 -17 -25 -30 -29 -30 -10 0 -1 113 11 145 11 29 25 32 34 9z m2503 -189
c79 -23 143 -57 179 -97 101 -110 97 -162 -45 -483 -49 -110 -98 -227 -109
-260 -12 -33 -40 -114 -62 -180 -53 -156 -95 -254 -145 -340 -23 -38 -75 -137
-117 -220 -73 -145 -76 -153 -83 -240 -3 -49 -8 -112 -10 -140 -2 -27 -7 -86
-10 -130 -21 -298 -32 -395 -48 -396 -7 0 -23 -3 -37 -5 -43 -7 -425 -7 -447
0 -27 9 -35 44 -28 116 13 140 17 177 20 200 2 14 7 50 10 80 11 99 73 453 94
540 12 46 28 93 35 105 8 12 42 36 76 54 76 41 108 87 149 215 27 84 73 268
86 344 3 18 12 63 19 100 8 37 17 85 20 107 4 22 8 47 11 55 2 8 6 33 10 55
39 273 103 508 147 536 19 12 228 0 285 -16z m-2256 -942 c132 -127 255 -265
277 -310 17 -36 43 -49 117 -58 85 -11 110 -16 118 -24 8 -8 -10 -111 -33
-192 -13 -45 -55 -89 -86 -89 -12 0 -56 4 -96 10 -40 5 -95 12 -123 15 -263
32 -278 51 -310 400 -3 33 -8 78 -11 100 -7 59 -6 218 2 238 3 9 12 17 20 17
7 0 63 -48 125 -107z m-2601 -23 c0 -15 -38 -50 -55 -50 -27 0 -15 31 18 45
39 17 37 17 37 5z m483 -205 c64 -80 88 -174 102 -400 3 -55 8 -113 10 -130 6
-46 18 -455 18 -595 0 -147 -5 -175 -36 -191 -29 -16 -460 -16 -499 -1 -34 14
-58 88 -88 265 -12 67 -23 133 -25 147 -3 14 -7 50 -11 80 -3 30 -8 64 -10 75
-2 11 -6 52 -9 92 -4 40 -8 83 -10 95 -12 62 -24 462 -14 472 16 16 210 103
214 96 7 -11 -3 -35 -41 -98 -34 -57 -35 -87 -3 -97 39 -13 68 10 168 132 39
48 67 60 76 32 10 -30 41 -22 81 21 21 22 40 40 43 40 3 0 19 -16 34 -35z
m8071 -170 c67 -36 192 -130 212 -160 19 -29 18 -47 -21 -240 -20 -101 -29
-230 -41 -555 -3 -102 -8 -188 -10 -191 -2 -3 -40 -7 -84 -8 -75 -2 -81 -1
-89 21 -5 13 -7 32 -4 43 38 173 56 501 33 609 -13 65 -52 116 -88 116 -26 0
-64 -45 -86 -103 -17 -45 -35 -62 -37 -34 0 6 -2 21 -4 32 -2 11 -6 34 -9 50
-6 37 -20 264 -19 321 1 78 9 92 61 107 74 23 132 21 186 -8z m728 -367 c15
-40 -10 -244 -66 -560 -19 -106 -52 -208 -66 -208 -33 0 -30 88 11 350 11 69
22 136 24 150 2 14 13 66 24 115 29 132 59 194 73 153z m-7691 -46 c101 -71
176 -137 337 -301 73 -74 154 -162 179 -195 l45 -61 -6 -83 c-3 -46 -8 -87
-11 -91 -2 -5 -146 -9 -318 -10 -248 -1 -317 1 -325 12 -10 12 -9 366 2 602 2
44 4 99 5 123 1 54 19 55 92 4z m5190 -413 c23 -48 35 -59 84 -84 81 -42 226
-164 256 -217 8 -14 6 -18 -8 -19 -10 0 -27 -2 -38 -5 -25 -5 -457 -8 -580 -4
-105 3 -125 8 -125 26 0 22 112 155 206 243 95 90 140 123 164 119 8 -2 27
-28 41 -59z m-3811 -1 c109 -20 205 -50 227 -70 47 -44 55 -196 12 -239 -11
-11 -34 -19 -56 -20 -225 -7 -361 2 -374 23 -15 24 13 229 41 302 11 29 17 29
150 4z m747 -1561 c1 -371 -2 -680 -7 -686 -4 -8 -42 -13 -103 -14 l-97 -2 0
305 c-1 961 -1 1012 15 1036 15 23 31 27 136 32 l56 3 0 -674z m333 -6 l0
-681 -27 -6 c-30 -8 -152 -12 -170 -6 -10 3 -13 144 -13 661 0 511 3 661 13
673 21 26 43 33 121 36 l76 3 0 -680z m3031 652 c5 -304 -1 -1327 -8 -1334
-13 -13 -162 -19 -184 -8 -14 7 -16 74 -14 661 1 359 5 661 9 671 5 9 20 20
35 23 14 3 31 7 36 8 6 2 36 4 68 5 56 2 57 1 58 -26z m335 -205 c0 -125 3
-230 6 -234 3 -3 19 1 35 9 45 23 138 39 188 31 91 -13 132 -80 121 -195 -7
-69 -35 -145 -74 -201 l-28 -40 32 -33 c76 -81 103 -199 95 -427 -1 -46 -12
-50 -145 -52 l-92 -2 2 146 c4 209 -19 278 -90 265 -16 -3 -34 -9 -40 -14 -7
-6 -11 -72 -10 -195 l1 -186 -23 -6 c-13 -3 -61 -7 -106 -8 l-83 -1 0 662 c0
628 1 662 19 682 20 22 41 26 131 26 l60 0 1 -227z m-4072 198 c39 -16 55 -61
50 -143 -4 -91 -39 -135 -109 -139 -39 -2 -48 1 -70 28 -14 16 -26 37 -26 46
-1 9 -3 28 -5 42 -10 78 29 163 79 173 40 8 47 7 81 -7z m-319 -42 c65 -31 75
-97 28 -171 -14 -21 -16 -21 -56 -6 -53 19 -184 21 -217 3 -42 -23 -53 -40
-53 -83 0 -56 20 -99 80 -177 27 -36 85 -112 130 -170 123 -161 147 -219 144
-359 -2 -132 -29 -208 -98 -271 -49 -45 -66 -54 -132 -70 -67 -16 -212 -9
-265 14 -21 9 -50 28 -64 43 -21 23 -24 33 -19 77 5 50 35 130 46 123 60 -34
114 -51 166 -51 101 -1 137 37 138 144 0 73 -24 118 -168 310 -148 198 -177
256 -183 360 -9 156 56 249 203 296 62 20 269 12 320 -12z m-1149 7 c10 -1 23
-39 39 -111 2 -8 38 -154 80 -325 43 -170 78 -314 79 -320 1 -5 31 -126 65
-268 49 -198 61 -261 52 -270 -8 -8 -48 -12 -109 -12 l-96 0 -8 35 c-4 19 -9
49 -12 65 -3 17 -8 41 -11 55 -3 14 -11 51 -16 83 -11 57 -11 57 -48 58 -43 1
-121 1 -176 0 l-41 -1 -27 -137 c-15 -76 -32 -142 -38 -148 -11 -11 -193 -14
-205 -3 -3 4 8 69 27 145 18 76 34 143 35 148 1 6 28 111 59 235 31 124 58
233 60 243 2 9 31 129 65 266 59 238 63 250 88 259 22 8 83 9 138 3z m3364 -8
c4 -5 15 -64 25 -133 9 -69 19 -134 21 -145 6 -41 45 -301 50 -335 2 -19 7
-48 9 -65 3 -16 7 -55 11 -85 3 -30 7 -66 9 -80 5 -28 18 -183 19 -217 0 -13
4 -23 8 -23 4 0 8 10 9 23 3 69 18 265 24 307 1 8 5 38 9 65 4 28 9 61 11 75
2 14 6 39 9 55 3 17 19 118 37 225 17 107 33 202 34 210 2 8 4 22 4 30 3 38
18 45 109 46 l89 2 12 -77 c7 -42 14 -85 16 -96 2 -11 6 -33 9 -50 4 -16 9
-46 12 -65 3 -19 18 -111 34 -205 16 -93 31 -195 35 -226 3 -31 7 -65 9 -75 5
-25 19 -204 18 -226 0 -10 3 -18 9 -18 5 0 9 10 10 23 0 12 2 42 4 67 2 25 6
79 10 120 3 41 7 86 9 100 3 14 7 52 10 85 3 33 19 152 36 265 16 113 33 225
36 250 13 106 24 164 33 173 5 5 54 9 110 10 117 2 110 11 87 -113 -8 -41 -17
-95 -21 -120 -3 -25 -8 -52 -10 -60 -2 -8 -6 -31 -9 -50 -3 -19 -24 -143 -46
-275 -23 -132 -50 -294 -61 -360 -11 -66 -22 -130 -24 -143 -2 -12 -9 -50 -15
-85 -19 -111 -14 -103 -72 -107 -212 -13 -221 -5 -264 230 -2 14 -8 45 -14 70
-5 25 -11 61 -14 80 -3 19 -7 49 -10 65 -12 78 -26 186 -31 250 -7 75 -14 97
-16 49 -1 -16 -3 -38 -4 -49 -1 -11 -5 -51 -9 -90 -4 -38 -9 -77 -11 -85 -2
-8 -6 -42 -10 -75 -7 -66 -7 -69 -29 -200 -8 -49 -17 -106 -20 -125 -18 -123
-15 -115 -49 -116 -126 -5 -194 -5 -208 0 -31 13 -58 83 -83 217 -14 74 -27
148 -30 164 -37 195 -147 881 -144 898 2 17 11 23 43 27 55 7 167 2 175 -7z
m1381 -354 c58 -13 98 -44 120 -93 18 -38 19 -68 16 -424 -2 -430 6 -390 -87
-420 -40 -12 -89 -17 -182 -17 -124 0 -127 0 -169 30 -26 18 -53 50 -68 80
-24 46 -26 60 -26 180 0 119 2 135 26 186 29 61 63 91 122 107 41 11 111 8
151 -8 24 -9 26 -8 27 23 3 76 -3 133 -15 146 -20 19 -88 20 -181 4 -44 -8
-86 -16 -94 -16 -19 -2 -41 71 -36 120 5 57 44 80 160 99 22 3 41 7 42 8 8 7
158 3 194 -5z m-3236 -463 c0 -327 -3 -458 -11 -466 -7 -7 -51 -12 -105 -13
l-94 -2 -1 435 c0 239 2 443 4 454 7 27 55 43 136 45 l71 2 0 -455z m955 447
c0 -5 7 -48 16 -98 8 -49 17 -103 20 -120 2 -16 9 -55 14 -85 25 -150 38 -259
39 -324 2 -62 14 -13 25 97 11 107 18 172 21 188 2 9 9 60 15 114 6 54 13 105
15 114 1 9 6 35 10 59 9 53 21 59 133 61 70 2 82 0 82 -14 0 -14 -35 -185 -71
-345 -17 -78 -88 -404 -93 -430 -84 -430 -130 -504 -313 -502 -135 1 -183 50
-153 157 10 36 17 45 29 40 52 -20 112 -28 135 -17 55 25 82 117 60 201 -7 28
-15 63 -17 78 -3 15 -12 57 -21 93 -8 36 -17 76 -20 90 -3 14 -28 126 -56 250
-28 124 -52 234 -55 245 -2 11 -7 31 -10 45 -3 14 -8 42 -11 62 -5 32 -3 37
18 41 40 8 188 7 188 0z"/>
<path d="M7914 2657 c-25 -22 -27 -28 -28 -115 0 -56 3 -92 9 -92 18 0 77 63
92 98 15 36 20 103 9 121 -12 18 -53 12 -82 -12z"/>
<path d="M2271 2895 c-8 -37 -11 -56 -16 -100 -6 -52 -9 -70 -20 -145 -8 -50
-8 -47 -29 -148 -24 -109 -28 -102 67 -101 l83 1 -17 82 c-10 44 -21 97 -24
116 -3 19 -8 49 -12 65 -3 17 -11 77 -18 135 -7 58 -13 101 -14 95z"/>
<path d="M6966 2342 c-40 -9 -49 -30 -53 -125 -5 -109 7 -140 53 -145 17 -2
36 3 42 10 9 12 16 126 13 220 -1 30 -25 47 -55 40z"/>
</g>
</svg>
